<svg xmlns="http://www.w3.org/2000/svg" version="1.1" xmlns:xlink="http://www.w3.org/1999/xlink" xmlns:svgjs="http://svgjs.dev/svgjs" width="1000" height="1000" viewBox="0 0 1000 1000"><rect width="1000" height="1000" fill="#000000"></rect><g transform="matrix(0.7,0,0,0.7,149.57575757575762,282.1265587044535)"><svg viewBox="0 0 396 247" data-background-color="#ffffff" preserveAspectRatio="xMidYMid meet" height="623" width="1000" xmlns="http://www.w3.org/2000/svg" xmlns:xlink="http://www.w3.org/1999/xlink"><g id="tight-bounds" transform="matrix(1,0,0,1,0.2400000000000091,-0.09999999999999432)"><svg viewBox="0 0 395.52 247.2" height="247.2" width="395.52"><g><svg></svg></g><g><svg viewBox="0 0 395.52 247.2" height="247.2" width="395.52"><g transform="matrix(1,0,0,1,75.54432,83.94966389540588)"><svg viewBox="0 0 244.43135999999998 79.30067220918824" height="79.30067220918824" width="244.43135999999998"><g><svg viewBox="0 0 244.43135999999998 79.30067220918824" height="79.30067220918824" width="244.43135999999998"><g><svg viewBox="0 0 244.43135999999998 79.30067220918824" height="79.30067220918824" width="244.43135999999998"><g><svg viewBox="0 0 244.43135999999998 79.30067220918824" height="79.30067220918824" width="244.43135999999998"><g><svg viewBox="0 0 244.43135999999998 79.30067220918824" height="79.30067220918824" width="244.43135999999998"><g><svg viewBox="0 0 244.43135999999998 45.32560552322429" height="45.32560552322429" width="244.43135999999998"><g transform="matrix(1,0,0,1,0,0)"><svg width="244.43135999999998" viewBox="0.9500000476837158 -37.75 276.6299743652344 51.29999923706055" height="45.32560552322429" data-palette-color="#0718c4"><path d="M12.5 0.8L12.5 0.8Q9.6 0.8 7.78-0.3 5.95-1.4 5.1-3.83 4.25-6.25 4.25-10.2L4.25-10.2 4.25-17Q4.25-17.85 4.3-18.9 4.35-19.95 4.4-21L4.4-21Q3.6-20.95 2.6-20.93 1.6-20.9 0.95-20.85L0.95-20.85 0.95-24.05 1.8-24.05Q4.55-24.05 6.08-24.53 7.6-25 8.15-25.5L8.15-25.5 10.45-25.5 10.45-10.2Q10.45-6.6 11.43-4.85 12.4-3.1 14.6-3.1L14.6-3.1Q16.1-3.15 17.57-4 19.05-4.85 19.95-6L19.95-6 19.95-16.8Q19.95-17.8 20-18.88 20.05-19.95 20.15-21L20.15-21Q19.35-20.95 18.32-20.93 17.3-20.9 16.65-20.85L16.65-20.85 16.65-24.05 17.95-24.05Q20.25-24.05 21.78-24.55 23.3-25.05 23.8-25.5L23.8-25.5 26.1-25.5 26.1-7.55Q26.1-6.85 26.05-5.5 26-4.15 25.9-3.05L25.9-3.05Q26.75-3.15 27.7-3.18 28.65-3.2 29.25-3.25L29.25-3.25 29.25 0 20.55 0Q20.45-0.7 20.38-1.4 20.3-2.1 20.25-2.75L20.25-2.75Q18.7-1.35 16.78-0.28 14.85 0.8 12.5 0.8ZM44.8 0L32.65 0 32.65-2.65Q34.1-2.65 34.7-3.28 35.3-3.9 35.45-5.05 35.6-6.2 35.6-7.65L35.6-7.65 35.6-17.05Q35.6-17.95 35.65-18.95 35.7-19.95 35.8-21L35.8-21Q35-20.95 33.97-20.9 32.95-20.85 32.3-20.8L32.3-20.8 32.3-24.05Q34.55-24.05 36-24.28 37.45-24.5 38.25-24.85 39.05-25.2 39.4-25.5L39.4-25.5 41.5-25.5Q41.6-24.95 41.6-24.6 41.6-24.25 41.65-23.88 41.7-23.5 41.8-22.8L41.8-22.8Q42.8-23.65 44.12-24.33 45.45-25 46.8-25.4 48.15-25.8 49.3-25.8L49.3-25.8Q53.8-25.8 55.75-23.15 57.7-20.5 57.7-14.7L57.7-14.7 57.7-7.15Q57.7-6.35 57.67-5.23 57.65-4.1 57.5-3.05L57.5-3.05Q58.35-3.15 59.25-3.18 60.15-3.2 60.75-3.2L60.75-3.2 60.75 0 48.6 0 48.6-2.65Q50.05-2.65 50.67-3.28 51.3-3.9 51.45-5.05 51.6-6.2 51.6-7.65L51.6-7.65 51.55-14.75Q51.55-18.35 50.47-20.13 49.4-21.9 46.95-21.9L46.95-21.9Q45.5-21.85 44.1-21.2 42.7-20.55 41.75-19.55L41.75-19.55Q41.8-18.95 41.8-18.3 41.8-17.65 41.8-17L41.8-17 41.75-7.15Q41.75-6.35 41.72-5.23 41.7-4.1 41.55-3.05L41.55-3.05Q42.35-3.15 43.27-3.18 44.2-3.2 44.8-3.2L44.8-3.2 44.8 0ZM63.95 0L63.95-2.65Q65.39-2.65 66-3.28 66.59-3.9 66.75-5.05 66.89-6.2 66.89-7.65L66.89-7.65 66.89-17Q66.89-17.85 66.94-18.88 67-19.9 67.09-21L67.09-21Q66.25-20.95 65.25-20.9 64.25-20.85 63.59-20.8L63.59-20.8 63.59-24.05Q65.84-24.05 67.32-24.28 68.8-24.5 69.62-24.85 70.44-25.2 70.8-25.5L70.8-25.5 73.05-25.5 73.05-7.15Q73.05-6.35 73.02-5.23 73-4.1 72.84-3.05L72.84-3.05Q73.64-3.15 74.57-3.18 75.5-3.2 76.09-3.2L76.09-3.2 76.09 0 63.95 0ZM69.69-29.8L69.69-29.8Q68.25-29.8 67.25-30.88 66.25-31.95 66.25-33.5L66.25-33.5Q66.25-35.05 67.27-36.15 68.3-37.25 69.69-37.25L69.69-37.25Q71.14-37.25 72.12-36.15 73.09-35.05 73.09-33.5L73.09-33.5Q73.09-31.95 72.14-30.88 71.19-29.8 69.69-29.8ZM93.94 0.35L90.59 0.35 81.64-26.45Q81.04-28.3 80.69-29.63 80.34-30.95 80.24-31.85L80.24-31.85Q79.39-31.8 78.67-31.78 77.94-31.75 77.29-31.7L77.29-31.7 77.29-35 91.19-35 91.19-32.25Q88.99-32.25 88.22-31.35 87.44-30.45 88.14-27.95L88.14-27.95Q88.89-24.95 89.74-22.15 90.59-19.35 91.39-16.45L91.39-16.45Q91.94-14.55 92.42-12.93 92.89-11.3 93.44-8.9L93.44-8.9 93.54-8.9Q93.74-9.65 94.09-10.95 94.44-12.25 94.87-13.65 95.29-15.05 95.62-16.23 95.94-17.4 96.09-17.95L96.09-17.95Q97.09-21.15 98.07-24.23 99.04-27.3 99.92-30.08 100.79-32.85 101.44-35.05L101.44-35.05 104.94-35.05Q105.59-32.95 106.34-30.58 107.09-28.2 107.89-25.73 108.69-23.25 109.44-20.88 110.19-18.5 110.84-16.5L110.84-16.5Q111.44-14.6 111.97-12.65 112.49-10.7 112.99-8.7L112.99-8.7 113.09-8.7Q113.54-10.25 114.02-11.95 114.49-13.65 115.04-15.45L115.04-15.45Q115.69-17.55 116.19-19.25 116.69-20.95 117.12-22.38 117.54-23.8 117.89-25.08 118.24-26.35 118.59-27.6L118.59-27.6Q118.89-28.7 119.37-29.88 119.84-31.05 120.49-31.85L120.49-31.85Q119.64-31.8 118.47-31.78 117.29-31.75 116.59-31.7L116.59-31.7 116.59-35 127.49-35 127.49-32.25Q126.19-32.15 125.22-31.63 124.24-31.1 123.44-29.83 122.64-28.55 121.89-26.2L121.89-26.2Q119.79-19.5 117.69-12.88 115.59-6.25 113.44 0.35L113.44 0.35 109.99 0.35 103.49-18.8Q102.94-20.55 102.52-22.2 102.09-23.85 101.64-25.4L101.64-25.4Q101.34-23.85 100.97-22.4 100.59-20.95 100.14-19.4L100.14-19.4 93.94 0.35ZM138.34 0.8L138.34 0.8Q134.74 0.8 131.94-0.83 129.14-2.45 127.59-5.43 126.04-8.4 126.04-12.45L126.04-12.45Q126.04-15.95 127.59-19 129.14-22.05 131.97-23.93 134.79-25.8 138.54-25.8L138.54-25.8Q140.64-25.8 142.59-25.2 144.54-24.6 146.09-23.2 147.64-21.8 148.56-19.5 149.49-17.2 149.44-13.9L149.44-13.9 132.64-13.6Q132.64-10.5 133.36-8.13 134.09-5.75 135.74-4.38 137.39-3 140.09-3L140.09-3Q141.29-3 142.66-3.43 144.04-3.85 145.39-4.73 146.74-5.6 147.79-6.9L147.79-6.9 149.69-5.15Q148.04-2.75 146.04-1.45 144.04-0.15 142.04 0.33 140.04 0.8 138.34 0.8ZM132.89-16.6L132.89-16.6 143.29-16.6Q143.24-18.6 142.72-19.98 142.19-21.35 141.19-22.08 140.19-22.8 138.74-22.8L138.74-22.8Q136.29-22.8 134.81-21.18 133.34-19.55 132.89-16.6ZM154.59 0L154.59-29.25Q154.59-30.1 154.61-31.13 154.64-32.15 154.74-33.25L154.74-33.25Q153.94-33.2 152.91-33.15 151.89-33.1 151.24-33.05L151.24-33.05 151.24-36.3Q153.54-36.3 154.99-36.52 156.44-36.75 157.26-37.1 158.09-37.45 158.44-37.75L158.44-37.75 160.74-37.75 160.74-23Q162.34-24.5 164.14-25.15 165.94-25.8 167.74-25.8L167.74-25.8Q170.84-25.8 173.21-24.25 175.59-22.7 176.94-19.85 178.29-17 178.29-13.15L178.29-13.15Q178.29-9.05 176.69-5.9 175.09-2.75 172.29-0.98 169.49 0.8 165.84 0.8L165.84 0.8Q164.39 0.8 162.31 0.2 160.24-0.4 158.54-2.2L158.54-2.2 157.14 0 154.59 0ZM160.74-19.6L160.74-7.6Q160.74-5.6 161.39-4.45 162.04-3.3 163.06-2.83 164.09-2.35 165.14-2.3L165.14-2.3Q167.44-2.3 168.86-3.65 170.29-5 170.96-7.28 171.64-9.55 171.64-12.2L171.64-12.2Q171.64-14.9 170.99-17.13 170.34-19.35 168.99-20.68 167.64-22 165.44-22L165.44-22Q164.09-21.95 162.84-21.3 161.59-20.65 160.74-19.6L160.74-19.6ZM211.79-23.8L209.04-23.8Q208.44-28.15 206.09-30.43 203.74-32.7 199.99-32.7L199.99-32.7Q197.34-32.7 195.26-31.53 193.19-30.35 191.76-28.33 190.34-26.3 189.59-23.63 188.84-20.95 188.84-17.9L188.84-17.9Q188.84-13.45 190.26-10.05 191.69-6.65 194.26-4.7 196.84-2.75 200.29-2.75L200.29-2.75Q203.49-2.75 206.61-4.33 209.74-5.9 211.79-8.8L211.79-8.8 213.84-6.95Q211.49-3.75 208.84-2.08 206.19-0.4 203.66 0.2 201.14 0.8 199.09 0.8L199.09 0.8Q195.24 0.8 192.11-0.58 188.99-1.95 186.71-4.38 184.44-6.8 183.21-10.03 181.99-13.25 181.99-17L181.99-17Q181.99-20.45 183.06-23.8 184.14-27.15 186.31-29.85 188.49-32.55 191.79-34.18 195.09-35.8 199.44-35.8L199.44-35.8Q201.64-35.8 204.04-35.13 206.44-34.45 208.54-33.15L208.54-33.15 208.34-35.45 211.79-35.45 211.79-23.8ZM216.73 0L216.73-2.65Q218.18-2.65 218.78-3.28 219.38-3.9 219.53-5.05 219.68-6.2 219.68-7.65L219.68-7.65 219.68-17Q219.68-17.85 219.73-18.88 219.78-19.9 219.88-21L219.88-21Q219.03-20.95 218.03-20.9 217.03-20.85 216.38-20.8L216.38-20.8 216.38-24.05Q218.63-24.05 220.11-24.28 221.58-24.5 222.41-24.85 223.23-25.2 223.58-25.5L223.58-25.5 225.83-25.5 225.83-7.15Q225.83-6.35 225.81-5.23 225.78-4.1 225.63-3.05L225.63-3.05Q226.43-3.15 227.36-3.18 228.28-3.2 228.88-3.2L228.88-3.2 228.88 0 216.73 0ZM222.48-29.8L222.48-29.8Q221.03-29.8 220.03-30.88 219.03-31.95 219.03-33.5L219.03-33.5Q219.03-35.05 220.06-36.15 221.08-37.25 222.48-37.25L222.48-37.25Q223.93-37.25 224.91-36.15 225.88-35.05 225.88-33.5L225.88-33.5Q225.88-31.95 224.93-30.88 223.98-29.8 222.48-29.8ZM242.23 0.8L242.23 0.8Q240.83 0.8 239.51 0.45 238.18 0.1 237.11-0.85 236.03-1.8 235.38-3.68 234.73-5.55 234.73-8.65L234.73-8.65 234.83-21.55 231.28-21.5 231.28-25Q232.78-25.05 234.18-26.03 235.58-27 236.63-28.6 237.68-30.2 238.03-32L238.03-32 241.08-32 241.03-25 248.08-25 248.08-21.8 241.03-21.65 240.98-8.8Q240.98-7.3 241.26-6.03 241.53-4.75 242.26-4 242.98-3.25 244.23-3.25L244.23-3.25Q245.18-3.25 246.41-3.85 247.63-4.45 248.88-6.25L248.88-6.25 250.93-4.4Q249.68-2.5 248.36-1.45 247.03-0.4 245.81 0.1 244.58 0.6 243.63 0.7 242.68 0.8 242.23 0.8ZM257.58 13.55L257.58 13.55Q255.78 13.55 254.53 12.55 253.28 11.55 253.28 9.8L253.28 9.8Q253.28 8.6 254.08 7.68 254.88 6.75 256.13 6.7L256.13 6.7Q257.23 6.65 257.9 7.43 258.58 8.2 258.58 9.3L258.58 9.3Q258.58 9.45 258.58 9.63 258.58 9.8 258.53 10L258.53 10Q258.63 10 258.88 10L258.88 10Q259.38 9.9 259.95 9.28 260.53 8.65 261.03 7.6L261.03 7.6Q261.63 6.45 262.28 4.78 262.93 3.1 263.53 1.05L263.53 1.05 255.68-15.1Q254.33-17.9 253.85-19.4 253.38-20.9 253.18-21.9L253.18-21.9 250.88-21.8 250.88-25 262.63-25 262.63-22.35 262.53-22.35Q260.63-22.2 260.43-20.93 260.23-19.65 261.08-17.8L261.08-17.8 266.33-6.15Q267.03-8.1 267.9-10.95 268.78-13.8 269.88-16.95L269.88-16.95Q270.13-17.75 270.5-18.73 270.88-19.7 271.28-20.6 271.68-21.5 272.08-21.95L272.08-21.95 269.03-21.8 269.03-25 277.58-25 277.58-22.35Q275.93-21.9 274.95-20.33 273.98-18.75 273.13-16.4L273.13-16.4 266.88 1.3Q265.43 5.4 264.18 8.13 262.93 10.85 261.4 12.2 259.88 13.55 257.58 13.55Z" opacity="1" transform="matrix(1,0,0,1,0,0)" fill="#ffffff" class="undefined-text-0" data-fill-palette-color="primary" id="text-0"></path></svg></g></svg></g><g transform="matrix(1,0,0,1,0,56.02589317272499)"><svg viewBox="0 0 244.43135999999998 23.274779036463247" height="23.274779036463247" width="244.43135999999998"><g transform="matrix(1,0,0,1,0,0)"><svg width="244.43135999999998" viewBox="0.699999988079071 -38 529.25 50.400001525878906" height="23.274779036463247" data-palette-color="#77d4fc"><path d="M4.8-35.85L4.8-35.85 24-35.85Q26.8-35.85 26.8-33.6L26.8-33.6Q26.8-32.6 26-31.8L26-31.8Q24.75-32.5 22.7-32.5L22.7-32.5 15.75-32.5 15.75-3.1Q15.75-1.75 17-1.15L17-1.15Q16 0.45 14.45 0.45L14.45 0.45Q11.6 0.45 11.6-3.05L11.6-3.05 11.6-32.5 3.45-32.5Q0.7-32.5 0.7-34.7L0.7-34.7Q0.7-35.75 1.45-36.5L1.45-36.5Q2.8-35.85 4.8-35.85ZM52.75-17.25L52.75-17.25 52.75-3.1Q52.75-1.7 54.05-1.15L54.05-1.15Q53 0.45 51.4 0.45L51.4 0.45Q48.65 0.45 48.65-3.05L48.65-3.05 48.65-16.95Q48.65-22.2 44.05-22.2L44.05-22.2Q41.55-22.2 39.3-20.2 37.05-18.2 36.2-14.85L36.2-14.85 36.2-3.1Q36.2-1.65 37.45-1.15L37.45-1.15Q36.4 0.45 34.85 0.45L34.85 0.45Q32.05 0.45 32.05-3.05L32.05-3.05 32.05-34.45Q32.05-35.9 30.8-36.45L30.8-36.45Q31.65-38 33.4-38L33.4-38Q36.2-38 36.2-34.55L36.2-34.55 36.2-19.75Q37.5-22.45 39.9-24.15 42.3-25.85 45.52-25.85 48.75-25.85 50.75-23.68 52.75-21.5 52.75-17.25ZM64.1-14.65L73.45-15.4Q75.5-15.55 75.5-17.78 75.5-20 74.22-21.48 72.95-22.95 70.65-22.95 68.35-22.95 66.45-20.75 64.55-18.55 64.1-14.65L64.1-14.65ZM64-12.5Q64-7.6 66.12-5.25 68.25-2.9 72.2-2.9 76.15-2.9 78.75-5.5L78.75-5.5Q79.5-5.1 79.5-4.15L79.5-4.15Q79.5-2.5 77.1-1.03 74.7 0.45 71.4 0.45L71.4 0.45Q66.25 0.45 62.95-2.8 59.65-6.05 59.65-11.93 59.65-17.8 63.22-21.83 66.8-25.85 71.45-25.85L71.45-25.85Q75.15-25.85 77.47-23.3 79.8-20.75 79.8-17.5L79.8-17.5Q79.8-15.15 78.52-14.03 77.25-12.9 74.4-12.8L74.4-12.8 64-12.5ZM109.59-2.85L109.59-2.85Q113.34-2.85 115.54-5.6 117.74-8.35 117.74-12.9 117.74-17.45 115.64-19.93 113.54-22.4 110.44-22.4L110.44-22.4Q105.94-22.4 103.74-17.9L103.74-17.9 103.69-8.1Q103.69-2.85 109.59-2.85ZM103.79-34.55L103.74-22.05Q106.49-25.85 111.07-25.85 115.64-25.85 118.84-22.58 122.04-19.3 122.04-13.23 122.04-7.15 118.39-3.4L118.39-3.4Q114.74 0.4 109.69 0.4 104.64 0.4 102.09-1.83 99.54-4.05 99.54-8.1L99.54-8.1 99.59-34.45Q99.59-35.95 98.34-36.45L98.34-36.45Q99.39-38 100.99-38L100.99-38Q103.79-38 103.79-34.55L103.79-34.55ZM130.94-14.65L140.29-15.4Q142.34-15.55 142.34-17.78 142.34-20 141.06-21.48 139.79-22.95 137.49-22.95 135.19-22.95 133.29-20.75 131.39-18.55 130.94-14.65L130.94-14.65ZM130.84-12.5Q130.84-7.6 132.96-5.25 135.09-2.9 139.04-2.9 142.99-2.9 145.59-5.5L145.59-5.5Q146.34-5.1 146.34-4.15L146.34-4.15Q146.34-2.5 143.94-1.03 141.54 0.45 138.24 0.45L138.24 0.45Q133.09 0.45 129.79-2.8 126.49-6.05 126.49-11.93 126.49-17.8 130.06-21.83 133.64-25.85 138.29-25.85L138.29-25.85Q141.99-25.85 144.31-23.3 146.64-20.75 146.64-17.5L146.64-17.5Q146.64-15.15 145.36-14.03 144.09-12.9 141.24-12.8L141.24-12.8 130.84-12.5ZM169.56-18.98Q168.74-18.3 167.59-18.3 166.44-18.3 165.64-18.9L165.64-18.9Q165.94-19.4 165.94-20.35 165.94-21.3 164.79-22.2 163.64-23.1 161.34-23.1 159.04-23.1 157.69-22.08 156.34-21.05 156.34-19.65 156.34-18.25 157.84-17.13 159.34-16 161.44-15.08 163.54-14.15 165.66-13.1 167.79-12.05 169.29-10.43 170.79-8.8 170.79-6.8L170.79-6.8Q170.79-3.85 167.99-1.7 165.19 0.45 160.89 0.45 156.59 0.45 153.89-1.2 151.19-2.85 151.19-5.45L151.19-5.45Q151.19-7 152.06-7.88 152.94-8.75 154.16-8.75 155.39-8.75 156.09-7.9L156.09-7.9Q155.39-6.95 155.39-5.6 155.39-4.25 156.76-3.28 158.14-2.3 160.76-2.3 163.39-2.3 164.96-3.43 166.54-4.55 166.54-6.18 166.54-7.8 165.06-9 163.59-10.2 161.49-11.08 159.39-11.95 157.26-12.93 155.14-13.9 153.66-15.4 152.19-16.9 152.19-18.8L152.19-18.8Q152.19-21.8 154.79-23.83 157.39-25.85 161.16-25.85 164.94-25.85 167.64-24.48 170.34-23.1 170.34-20.85L170.34-20.85Q170.39-19.65 169.56-18.98ZM183.03-22.2L182.33-22.2 182.33-6.35Q182.33-4.5 183.06-3.7 183.78-2.9 185.43-2.9L185.43-2.9Q188.53-2.9 191.28-5.55L191.28-5.55Q192.13-5.1 192.13-4.1L192.13-4.1Q192.13-2.4 189.93-0.98 187.73 0.45 184.53 0.45L184.53 0.45Q178.13 0.45 178.13-6.2L178.13-6.2 178.13-22.2Q174.08-22.35 174.08-24.15L174.08-24.15Q174.08-25.1 174.68-25.6L174.68-25.6Q176.43-25.35 177.38-25.35L177.38-25.35 178.13-25.35 178.13-29.4Q178.13-30.8 176.88-31.4L176.88-31.4Q177.88-32.95 179.48-32.95L179.48-32.95Q182.33-32.95 182.33-29.45L182.33-29.45 182.33-25.35 190.73-25.35Q190.93-25 190.93-24.5L190.93-24.5Q190.93-22.2 183.03-22.2L183.03-22.2ZM222.28-2.95L222.28-2.95Q225.33-2.95 227.45-5.58 229.58-8.2 229.58-12.7 229.58-17.2 227.45-19.8 225.33-22.4 222.28-22.4L222.28-22.4Q217.98-22.4 215.78-18.3L215.78-18.3 215.78-6.4Q217.03-4.5 218.58-3.73 220.13-2.95 222.28-2.95ZM215.78-22.35L215.78-22.35 215.78-22.3Q218.38-25.85 222.9-25.85 227.43-25.85 230.65-22.43 233.88-19 233.88-12.75 233.88-6.5 230.5-3.05 227.13 0.4 222.75 0.4 218.38 0.4 215.78-2.5L215.78-2.5 215.78 8.85Q215.78 10.35 217.03 10.8L217.03 10.8Q215.98 12.4 214.43 12.4L214.43 12.4Q211.63 12.4 211.63 8.85L211.63 8.85 211.63-22.25Q211.63-23.7 210.38-24.25L210.38-24.25Q211.33-25.85 212.98-25.85L212.98-25.85Q215.78-25.85 215.78-22.35ZM244.83-34.55L244.83-34.55 244.83-3.1Q244.83-1.65 246.08-1.15L246.08-1.15Q245.03 0.45 243.48 0.45L243.48 0.45Q240.68 0.45 240.68-3.05L240.68-3.05 240.68-34.45Q240.68-35.9 239.43-36.45L239.43-36.45Q240.28-38 242.03-38L242.03-38Q244.83-38 244.83-34.55ZM256.57-6.4L256.57-6.4Q256.57-2.8 260.5-2.8 264.42-2.8 266.97-6.25L266.97-6.25 266.97-12.2Q261.67-11.9 259.12-10.33 256.57-8.75 256.57-6.4ZM271.12-17.8L271.12-17.8 271.12-4.5Q271.12-1.85 273.57-1.5L273.57-1.5Q272.62 0.45 270.42 0.45L270.42 0.45Q267.27 0.45 266.97-3.6L266.97-3.6Q264.07 0.45 259.17 0.45L259.17 0.45Q256.07 0.45 254.07-1.25 252.07-2.95 252.07-5.95L252.07-5.95Q252.07-9.65 255.8-11.93 259.52-14.2 266.97-14.4L266.97-14.4 266.97-17.4Q266.97-20.5 265.87-21.98 264.77-23.45 262.4-23.45 260.02-23.45 258.82-22.48 257.62-21.5 257.62-20.28 257.62-19.05 258.32-18.3L258.32-18.3Q257.27-17.5 256-17.5 254.72-17.5 253.92-18.2 253.12-18.9 253.12-20.2L253.12-20.2Q253.12-22.55 255.82-24.2 258.52-25.85 262.47-25.85 266.42-25.85 268.77-23.73 271.12-21.6 271.12-17.8ZM297.92-21.05L297.92-21.05Q297.92-19.85 297.22-19.15 296.52-18.45 295.52-18.45 294.52-18.45 293.87-18.85L293.87-18.85Q294.02-19.4 294.02-19.95L294.02-19.95Q294.02-23 290.27-23L290.27-23Q287.22-23 284.82-20.2 282.42-17.4 282.42-12.63 282.42-7.85 284.65-5.45 286.87-3.05 290.12-3.05L290.12-3.05Q294.27-3.05 297.02-5.7L297.02-5.7Q297.67-5.15 297.67-4.25L297.67-4.25Q297.67-2.65 295.17-1.1 292.67 0.45 289.47 0.45L289.47 0.45Q284.82 0.45 281.52-2.75 278.22-5.95 278.22-11.88 278.22-17.8 281.95-21.83 285.67-25.85 291.02-25.85L291.02-25.85Q294.17-25.85 296.05-24.45 297.92-23.05 297.92-21.05ZM307.22-14.65L316.57-15.4Q318.62-15.55 318.62-17.78 318.62-20 317.34-21.48 316.07-22.95 313.77-22.95 311.47-22.95 309.57-20.75 307.67-18.55 307.22-14.65L307.22-14.65ZM307.12-12.5Q307.12-7.6 309.24-5.25 311.37-2.9 315.32-2.9 319.27-2.9 321.87-5.5L321.87-5.5Q322.62-5.1 322.62-4.15L322.62-4.15Q322.62-2.5 320.22-1.03 317.82 0.45 314.52 0.45L314.52 0.45Q309.37 0.45 306.07-2.8 302.77-6.05 302.77-11.93 302.77-17.8 306.34-21.83 309.92-25.85 314.57-25.85L314.57-25.85Q318.27-25.85 320.59-23.3 322.92-20.75 322.92-17.5L322.92-17.5Q322.92-15.15 321.64-14.03 320.37-12.9 317.52-12.8L317.52-12.8 307.12-12.5ZM347.81-22.2L347.11-22.2 347.11-6.35Q347.11-4.5 347.84-3.7 348.56-2.9 350.21-2.9L350.21-2.9Q353.31-2.9 356.06-5.55L356.06-5.55Q356.91-5.1 356.91-4.1L356.91-4.1Q356.91-2.4 354.71-0.98 352.51 0.45 349.31 0.45L349.31 0.45Q342.91 0.45 342.91-6.2L342.91-6.2 342.91-22.2Q338.86-22.35 338.86-24.15L338.86-24.15Q338.86-25.1 339.46-25.6L339.46-25.6Q341.21-25.35 342.16-25.35L342.16-25.35 342.91-25.35 342.91-29.4Q342.91-30.8 341.66-31.4L341.66-31.4Q342.66-32.95 344.26-32.95L344.26-32.95Q347.11-32.95 347.11-29.45L347.11-29.45 347.11-25.35 355.51-25.35Q355.71-25 355.71-24.5L355.71-24.5Q355.71-22.2 347.81-22.2L347.81-22.2ZM377.94-20.38Q375.66-23 372.21-23 368.76-23 366.86-20.63 364.96-18.25 364.96-13.65L364.96-13.65Q364.96-7.7 367.29-5.03 369.61-2.35 373.06-2.35 376.51-2.35 378.36-4.75 380.21-7.15 380.21-11.75L380.21-11.75Q380.21-17.75 377.94-20.38ZM364.19-22.4Q367.66-25.85 372.61-25.85 377.56-25.85 381.04-22.38 384.51-18.9 384.51-12.68 384.51-6.45 381.04-3 377.56 0.45 372.61 0.45 367.66 0.45 364.19-3 360.71-6.45 360.71-12.7 360.71-18.95 364.19-22.4ZM421.63-18.98Q420.81-18.3 419.66-18.3 418.51-18.3 417.71-18.9L417.71-18.9Q418.01-19.4 418.01-20.35 418.01-21.3 416.86-22.2 415.71-23.1 413.41-23.1 411.11-23.1 409.76-22.08 408.41-21.05 408.41-19.65 408.41-18.25 409.91-17.13 411.41-16 413.51-15.08 415.61-14.15 417.73-13.1 419.86-12.05 421.36-10.43 422.86-8.8 422.86-6.8L422.86-6.8Q422.86-3.85 420.06-1.7 417.26 0.45 412.96 0.45 408.66 0.45 405.96-1.2 403.26-2.85 403.26-5.45L403.26-5.45Q403.26-7 404.13-7.88 405.01-8.75 406.23-8.75 407.46-8.75 408.16-7.9L408.16-7.9Q407.46-6.95 407.46-5.6 407.46-4.25 408.83-3.28 410.21-2.3 412.83-2.3 415.46-2.3 417.03-3.43 418.61-4.55 418.61-6.18 418.61-7.8 417.13-9 415.66-10.2 413.56-11.08 411.46-11.95 409.33-12.93 407.21-13.9 405.73-15.4 404.26-16.9 404.26-18.8L404.26-18.8Q404.26-21.8 406.86-23.83 409.46-25.85 413.23-25.85 417.01-25.85 419.71-24.48 422.41-23.1 422.41-20.85L422.41-20.85Q422.46-19.65 421.63-18.98ZM435.1-22.2L434.4-22.2 434.4-6.35Q434.4-4.5 435.13-3.7 435.85-2.9 437.5-2.9L437.5-2.9Q440.6-2.9 443.35-5.55L443.35-5.55Q444.2-5.1 444.2-4.1L444.2-4.1Q444.2-2.4 442-0.98 439.8 0.45 436.6 0.45L436.6 0.45Q430.2 0.45 430.2-6.2L430.2-6.2 430.2-22.2Q426.15-22.35 426.15-24.15L426.15-24.15Q426.15-25.1 426.75-25.6L426.75-25.6Q428.5-25.35 429.45-25.35L429.45-25.35 430.2-25.35 430.2-29.4Q430.2-30.8 428.95-31.4L428.95-31.4Q429.95-32.95 431.55-32.95L431.55-32.95Q434.4-32.95 434.4-29.45L434.4-29.45 434.4-25.35 442.8-25.35Q443-25 443-24.5L443-24.5Q443-22.2 435.1-22.2L435.1-22.2ZM470.8-22.35L470.8-22.35 470.8-3.1Q470.8-1.7 472.1-1.15L472.1-1.15Q471.05 0.45 469.45 0.45L469.45 0.45Q466.7 0.45 466.7-3.05L466.7-3.05 466.7-4.35Q463.9 0.45 458.55 0.45L458.55 0.45Q450.1 0.45 450.1-8.15L450.1-8.15 450.1-22.25Q450.1-23.7 448.85-24.25L448.85-24.25Q449.8-25.85 451.45-25.85L451.45-25.85Q454.25-25.85 454.25-22.35L454.25-22.35 454.25-8.4Q454.25-3.1 459.45-3.1L459.45-3.1Q461.85-3.1 463.78-4.55 465.7-6 466.7-8.6L466.7-8.6 466.7-22.25Q466.7-23.7 465.4-24.25L465.4-24.25Q466.55-25.85 468.05-25.85L468.05-25.85Q470.8-25.85 470.8-22.35ZM495.25-8.5L495.25-20.65Q493-22.75 489.77-22.75 486.55-22.75 484.27-19.98 482-17.2 482-12.4 482-7.6 483.97-5.2 485.95-2.8 488.95-2.8L488.95-2.8Q494-2.8 495.25-8.5L495.25-8.5ZM499.45-34.55L499.45-34.55 499.45-3.1Q499.45-1.65 500.7-1.15L500.7-1.15Q499.65 0.45 498.05 0.45L498.05 0.45Q495.25 0.45 495.25-3.05L495.25-3.05 495.25-3.85Q493 0.45 488.05 0.45L488.05 0.45Q483.85 0.45 480.7-2.93 477.55-6.3 477.55-12.28 477.55-18.25 480.95-22.05 484.35-25.85 489.15-25.85L489.15-25.85Q492.55-25.85 495.25-24.15L495.25-24.15 495.25-34.45Q495.25-35.95 494-36.45L494-36.45Q494.95-38 496.6-38L496.6-38Q499.45-38 499.45-34.55ZM518.2-2.05L525.25-21.5Q525.6-22.45 525.6-23.4 525.6-24.35 524.9-25.1L524.9-25.1Q526-25.85 527.35-25.85 528.7-25.85 529.55-24.5L529.55-24.5Q529.95-23.8 529.95-22.93 529.95-22.05 529.5-20.95L529.5-20.95 519.1 6.15Q516.65 12.4 512.4 12.4L512.4 12.4Q510.8 12.4 509.9 11.6 509 10.8 509 9.58 509 8.35 509.8 7.6L509.8 7.6Q510.7 8.55 512 8.55 513.3 8.55 514.07 7.85 514.85 7.15 515.5 5.35L515.5 5.35 517.3 0.45Q517.25 0.45 517.15 0.45L517.15 0.45Q516.15 0.45 515.3-0.23 514.45-0.9 514.05-2.15L514.05-2.15 507.15-22.15Q506.65-24 505.6-24.5L505.6-24.5Q506.45-25.85 508.25-25.85L508.25-25.85Q510.4-25.85 511.35-22.6L511.35-22.6 518.2-2.05Z" opacity="1" transform="matrix(1,0,0,1,0,0)" fill="#ffffff" class="undefined-text-1" data-fill-palette-color="secondary" id="text-1"></path></svg></g></svg></g></svg></g></svg></g></svg></g></svg></g></svg></g><g><path d="M0 123.6c0-68.262 55.338-123.6 123.6-123.6 52.385 0 97.159 32.589 115.153 78.6l-2.198 0c-17.886-44.856-61.719-76.556-112.955-76.556-67.134 0-121.556 54.423-121.556 121.556 0 67.134 54.423 121.556 121.556 121.556 51.236 0 95.068-31.699 112.955-76.556h2.198c-17.994 46.01-62.767 78.6-115.153 78.6-68.262 0-123.6-55.338-123.6-123.6z" fill="#0718c4" stroke="transparent" data-fill-palette-color="tertiary"></path></g></svg></g><defs></defs></svg><rect width="395.52" height="247.2" fill="none" stroke="none" visibility="hidden"></rect></g></svg></g></svg>